# AST/ASF file generated using VICON BodyLanguage
# -----------------------------------------------
:version 1.10
:name VICON
:units
  mass 1.0
  length 0.45
  angle deg
:documentation
   .ast/.asf automatically generated from VICON data using
   VICON BodyBuilder and BodyLanguage model FoxedUp or BRILLIANT.MOD
:root
   order TX TY TZ RX RY RZ
   axis XYZ
   position 0 0 0  
   orientation 0 0 0 
:bonedata
  begin
     id 1 
     name lhipjoint
     direction 0.627457 -0.725269 0.283342 
     length 2.53237 
     axis 0 0 0  XYZ
  end
  begin
     id 2 
     name lfemur
     direction 0.34202 -0.939693 0  
     length 7.32496  
     axis 0 0 20  XYZ
    dof rx ry rz
    limits (-160.0 20.0)
           (-70.0 70.0)
           (-60.0 70.0)
  end
  begin
     id 3 
     name ltibia
     direction 0.34202 -0.939693 0   
     length 7.69674   
     axis 0 0 20   XYZ
    dof rx
    limits (-10.0 170.0)
  end
  begin
     id 4 
     name lfoot
     direction 0.127289 -0.349722 0.928166   
     length 1.8612   
     axis -90 7.62852e-016 20   XYZ
    dof rx rz
    limits (-45.0 90.0)
           (-70.0 20.0)
  end
  begin
     id 5 
     name ltoes
     direction 1.53561e-011 -4.21864e-011 1   
     length 0.925608   
     axis -90 7.62852e-016 20   XYZ
    dof rx
    limits (-90.0 20.0)
  end
  begin
     id 6 
     name rhipjoint
     direction -0.609094 -0.738725 0.288599   
     length 2.48624  
     axis 0 0 0  XYZ 
  end
  begin
     id 7 
     name rfemur
     direction -0.34202 -0.939693 0   
     length 7.44259   
     axis 0 0 -20   XYZ
    dof rx ry rz
    limits (-160.0 20.0)
           (-70.0 70.0)
           (-70.0 60.0)
  end
  begin
     id 8 
     name rtibia
     direction -0.34202 -0.939693 0   
     length 7.7781   
     axis 0 0 -20   XYZ
    dof rx
    limits (-10.0 170.0)
 end
 begin
     id 9 
     name rfoot
     direction -0.107015 -0.294021 0.949789   
     length 2.14741  
     axis -90 -7.62852e-016 -20   XYZ
    dof rx rz
    limits (-45.0 90.0)
           (-20.0 70.0)
  end
  begin
     id 10 
     name rtoes
     direction -1.53497e-011 -4.21924e-011 1   
     length 1.0706   
     axis -90 -7.62852e-016 -20   XYZ
    dof rx
    limits (-90.0 20.0)
  end
  begin
     id 11 
     name lowerback
     direction -0.0142066 0.998112 -0.0597545   
     length 1.86627   
     axis 0 0 0   XYZ
    dof rx ry rz
    limits (-20.0 45.0)
           (-30.0 30.0)
           (-30.0 30.0)
  end
  begin
     id 12 
     name upperback
     direction 0.00547294 0.999744 0.0219437   
     length 1.86272   
     axis 0 0 0   XYZ
    dof rx ry rz
    limits (-20.0 45.0)
           (-30.0 30.0)
           (-30.0 30.0)
  end
  begin
     id 13 
     name thorax
     direction 0.0116162 0.998704 0.0495538   
     length 1.8703   
     axis 0 0 0   XYZ
    dof rx ry rz
    limits (-20.0 45.0)
           (-30.0 30.0)
           (-30.0 30.0)
  end
  begin
     id 14 
     name lowerneck
     direction -0.0106574 0.998739 0.0490586   
     length 1.8074   
     axis 0 0 0   XYZ
    dof rx ry rz
    limits (-20.0 45.0)
           (-30.0 30.0)
           (-30.0 30.0)
  end
  begin
     id 15 
     name upperneck
     direction 0.030527 0.976587 -0.212944   
     length 1.80681   
     axis 0 0 0   XYZ
    dof rx ry rz
    limits (-20.0 45.0)
           (-30.0 30.0)
           (-30.0 30.0)
  end
  begin
     id 16
     name head
     direction 0.00869225 0.997035 -0.0764531  
     length 1.8313  
     axis 0 0 0   XYZ
    dof rx ry rz
    limits (-20.0 45.0)
           (-30.0 30.0)
           (-30.0 30.0)
  end
  begin
     id 17 
     name lclavicle
     direction 0.915958 0.399447 0.0382386  
     length 3.78965  
     axis 0 0 0   XYZ
    dof ry rz
    limits (-20.0 10.0)
           (0.0 20.0)
  end
  begin
     id 18 
     name lhumerus
     direction 1 -4.48967e-011 3.19303e-027   
     length 4.78095   
     axis -180 -30 -90   XYZ
    dof rx ry rz
    limits (-60.0 90.0)
           (-90.0 90.0)
           (-90.0 90.0)
  end
  begin
     id 19
     name lradius
     direction 1 -4.48967e-011 -3.77974e-027   
     length 3.58615   
     axis -180 -30 -90   XYZ
    dof rx
    limits (-10.0 170.0)
  end
  begin
     id 20
     name lwrist
     direction 1 -4.48927e-011 1.2807e-027   
     length 1.79307   
     axis 1.91374e-015 90 90   XYZ
    dof ry
    limits (-180.0 0.0)
 end
  begin
     id 21 
     name lhand
     direction 1 -4.49036e-011 2.5614e-027   
     length 0.659812   
     axis -1.63439e-015 90 90   XYZ
    dof rx rz
    limits (-90.0 90.0)
           (-45.0 45.0)
  end
  begin
     id 22 
     name lfingers
     direction 1 -4.49052e-011 5.1228e-027   
     length 0.531957   
     axis -3.26879e-015 90 90   XYZ
    dof rx
    limits (0.0 90.0)
  end
  begin
     id 23
     name lthumb
     direction 0.707107 -6.35012e-011 0.707107   
     length 0.763787   
     axis -90 45 2.85299e-015   XYZ
    dof rx rz
    limits (-45.0 45.0)
           (-45.0 45.0)
  end
  begin
     id 24 
     name rclavicle
     direction -0.895351 0.435135 0.0948887   
     length 3.70497  
     axis 0 0 0   XYZ 
    dof ry rz
    limits (-10.0 20.0)
           (-20.0 0.0)
  end
  begin
     id 25 
     name rhumerus
     direction -1 -4.48971e-011 2.38946e-027  
     length 4.48913   
     axis -180 30 90   XYZ
    dof rx ry rz
    limits (-90.0 60.0)
           (-90.0 90.0)
           (-90.0 90.0)
  end
  begin
     id 26 
     name rradius
     direction -1 -4.4895e-011 4.38668e-027   
     length 3.7051   
     axis -180 30 90   XYZ
    dof rx
    limits (-10.0 170.0)
  end
  begin
     id 27 
     name rwrist
     direction -1 -4.49007e-011 1.2807e-027   
     length 1.85255   
     axis 1.91374e-015 -90 -90   XYZ
    dof ry
    limits (-180.0 0.0)
  end
  begin
     id 28
     name rhand
     direction -1 -4.48851e-011 2.5614e-027   
     length 0.449136   
     axis -1.63439e-015 -90 -90   XYZ
    dof rx rz
    limits (-90.0 90.0)
           (-45.0 45.0)
  end
  begin
     id 29
     name rfingers
     direction -1 -4.49128e-011 5.1228e-027   
     length 0.362105   
     axis -3.26879e-015 -90 -90   XYZ
    dof rx
    limits (0.0 90.0)
  end
  begin
     id 30
     name rthumb
     direction -0.707107 -6.34851e-011 0.707107   
     length 0.519912   
     axis -90 -45 -2.85299e-015   XYZ
    dof rx rz
    limits (-45.0 45.0)
           (-45.0 45.0)
  end
:hierarchy
  begin
    root lhipjoint rhipjoint lowerback
    lhipjoint lfemur
    lfemur ltibia
    ltibia lfoot
    lfoot ltoes
    rhipjoint rfemur
    rfemur rtibia
    rtibia rfoot
    rfoot rtoes
    lowerback upperback
    upperback thorax
    thorax lowerneck lclavicle rclavicle
    lowerneck upperneck
    upperneck head
    lclavicle lhumerus
    lhumerus lradius
    lradius lwrist
    lwrist lhand lthumb
    lhand lfingers
    rclavicle rhumerus
    rhumerus rradius
    rradius rwrist
    rwrist rhand rthumb
    rhand rfingers
  end

#!OML:ASF I:\Actors\actors\Patient Classification 2\Patient 1\Session 1\actor1.ASF
:FULLY-SPECIFIED
:DEGREES
24
root -0.797087 18.7061 5.46185 0.747999 -2.73874 -4.13151
lowerback 5.07956 0.520678 2.20544
upperback 0.323569 0.85488 1.348
thorax -2.50348 0.40809 0.0879291
lowerneck -13.4836 -0.469867 -0.477433
upperneck 21.6908 -0.809966 1.11377
head 9.03024 -0.299929 0.364993
rclavicle -1.05294e-015 2.78299e-015
rhumerus -45.6652 -0.856227 -87.8642
rradius 42.0366
rwrist 13.9561
rhand -7.48041 -28.4528
rfingers 7.12502
rthumb 18.4087 -57.6018
lclavicle -1.05294e-015 2.78299e-015
lhumerus -39.3303 -0.139977 92.8999
lradius 38.2022
lwrist -7.76508
lhand -3.38231 -24.1369
lfingers 7.12502
lthumb 22.347 4.59067
rfemur 6.60785 3.1233 18.8381
rtibia 1.59028e-015
rfoot -16.8993 -11.0294
rtoes -4.25992
lfemur -6.16195 -7.22796 -9.91716
ltibia 23.1461
lfoot -22.3777 12.7471
ltoes -55.7016
25
root -0.795756 18.7059 5.46293 0.732637 -2.74843 -4.10697
lowerback 5.04029 0.52656 2.19183
upperback 0.327593 0.860608 1.35055
thorax -2.47748 0.411352 0.0982011
lowerneck -13.5228 -0.480601 -0.472111
upperneck 21.711 -0.825167 1.10867
head 9.04456 -0.306957 0.360554
rclavicle 8.04146e-015 -1.11319e-014
rhumerus -45.6657 -0.898849 -87.8431
rradius 42.0465
rwrist 13.978
rhand -7.43454 -28.235
rfingers 7.12502
rthumb 18.4528 -57.3797
lclavicle 8.04146e-015 -1.11319e-014
lhumerus -39.393 -0.185035 92.9193
lradius 38.3277
lwrist -7.75761
lhand -3.33566 -24.1062
lfingers 7.12502
lthumb 22.3918 4.61602
rfemur 6.62485 3.13406 18.8062
rtibia -1.11319e-014
rfoot -16.8418 -11.038
rtoes -4.49327
lfemur -6.12705 -7.3368 -9.96471
ltibia 23.1289
lfoot -22.4162 12.8495
ltoes -55.7388
26
root -0.794966 18.7056 5.4636 0.717859 -2.747 -4.07434
lowerback 5.00855 0.518531 2.16044
upperback 0.325471 0.847249 1.35416
thorax -2.46257 0.405178 0.120749
lowerneck -13.6075 -0.485179 -0.565679
upperneck 21.7866 -0.838754 1.22925
head 9.08752 -0.307436 0.415823
rclavicle 3.57191e-016 1.73937e-014
rhumerus -45.6838 -0.891308 -87.857
rradius 42.0499
rwrist 13.9987
rhand -7.51453 -28.2095
rfingers 7.12502
rthumb 18.3759 -57.3616
lclavicle 3.57191e-016 1.73937e-014
lhumerus -39.4205 -0.17594 92.9252
lradius 38.3585
lwrist -7.77959
lhand -3.35514 -24.1602
lfingers 7.12502
lthumb 22.3731 4.56427
rfemur 6.64303 3.13355 18.7666
rtibia 4.77083e-015
rfoot -16.7919 -11.0351
rtoes -4.5745
lfemur -6.106 -7.29778 -10.0017
ltibia 23.1104
lfoot -22.3749 12.8285
ltoes -55.8216
27
root -0.79482 18.7052 5.46377 0.695407 -2.7432 -4.06162
lowerback 5.0028 0.512653 2.15634
upperback 0.324264 0.839205 1.36088
thorax -2.46085 0.401258 0.130568
lowerneck -13.6393 -0.479658 -0.602253
upperneck 21.797 -0.840108 1.30368
head 9.09755 -0.302853 0.447205
rclavicle -8.23403e-015 -1.76421e-014
rhumerus -45.6777 -0.842038 -87.8955
rradius 42.027
rwrist 13.9527
rhand -7.67642 -28.48
rfingers 7.12502
rthumb 18.2202 -57.6467
lclavicle -8.23403e-015 -1.76421e-014
lhumerus -39.4098 -0.152096 92.9333
lradius 38.315
lwrist -7.81019
lhand -3.43256 -24.1887
lfingers 7.12502
lthumb 22.2988 4.54471
rfemur 6.66862 3.13039 18.7528
rtibia 3.18055e-014
rfoot -16.8197 -11.0253
rtoes -4.43159
lfemur -6.07311 -7.3067 -10.0179
ltibia 23.098
lfoot -22.4108 12.807
ltoes -55.8015
28
root -0.794103 18.7048 5.46446 0.672779 -2.75127 -4.05683
lowerback 4.98512 0.517008 2.17235
upperback 0.324641 0.845507 1.36843
thorax -2.45036 0.40435 0.129111
lowerneck -13.5706 -0.464387 -0.481967
upperneck 21.7089 -0.821323 1.19795
head 9.05317 -0.296152 0.393033
rclavicle 3.65577e-015 -6.95746e-016
rhumerus -45.6641 -0.803733 -87.9135
rradius 42.0018
rwrist 13.8851
rhand -7.76032 -28.6534
rfingers 7.12502
rthumb 18.1394 -57.8276
lclavicle 3.65577e-015 -6.95746e-016
lhumerus -39.4125 -0.141639 92.9549
lradius 38.2976
lwrist -7.8154
lhand -3.47293 -24.1416
lfingers 7.12502
lthumb 22.26 4.59641
rfemur 6.69281 3.13945 18.7451
rtibia 9.54166e-015
rfoot -16.8524 -11.0074
rtoes -4.23523
lfemur -6.03613 -7.3819 -10.0387
ltibia 23.0924
lfoot -22.5043 12.8521
ltoes -55.7763
29
root -0.793145 18.7047 5.46503 0.662768 -2.75918 -4.04603
lowerback 4.94496 0.520808 2.17999
upperback 0.326052 0.849813 1.3754
thorax -2.42635 0.406657 0.13212
lowerneck -13.5485 -0.460507 -0.403222
upperneck 21.6831 -0.809897 1.09484
head 9.03928 -0.295645 0.345976
rclavicle 1.20901e-014 -7.00716e-015
rhumerus -45.6631 -0.768622 -87.9062
rradius 42.0111
rwrist 13.8527
rhand -7.70211 -28.6427
rfingers 7.12502
rthumb 18.1955 -57.8116
lclavicle 1.20901e-014 -7.00716e-015
lhumerus -39.3867 -0.124107 92.9675
lradius 38.2741
lwrist -7.80722
lhand -3.40612 -24.086
lfingers 7.12502
lthumb 22.3242 4.64437
rfemur 6.70441 3.14817 18.7294
rtibia -9.54166e-015
rfoot -16.8628 -11.0006
rtoes -4.14594
lfemur -6.02835 -7.31224 -10.0537
ltibia 23.0928
lfoot -22.4487 12.8344
ltoes -55.8494
30
root -0.792793 18.7046 5.46554 0.650187 -2.76166 -4.03826
lowerback 4.91305 0.531184 2.18929
upperback 0.325665 0.862893 1.36701
thorax -2.40842 0.413187 0.117725
lowerneck -13.5843 -0.466119 -0.392976
upperneck 21.7122 -0.81084 1.05455
head 9.05576 -0.299359 0.330392
rclavicle -1.66575e-014 1.38155e-014
rhumerus -45.6933 -0.771037 -87.9204
rradius 42.046
rwrist 13.8122
rhand -7.66304 -28.6466
rfingers 7.12502
rthumb 18.233 -57.8121
lclavicle -1.66575e-014 1.38155e-014
lhumerus -39.3574 -0.149228 92.9595
lradius 38.2426
lwrist -7.81178
lhand -3.38443 -24.0567
lfingers 7.12502
lthumb 22.345 4.67118
rfemur 6.72144 3.15079 18.7226
rtibia 0
rfoot -16.8577 -11.0266
rtoes -4.37876
lfemur -6.01153 -7.3254 -10.0687
ltibia 23.0948
lfoot -22.4225 12.8511
ltoes -55.8539
31
root -0.792721 18.7043 5.46648 0.642634 -2.76694 -4.05562
lowerback 4.87113 0.54244 2.2217
upperback 0.325571 0.878182 1.3633
thorax -2.38428 0.420652 0.095164
lowerneck -13.6469 -0.473327 -0.486649
upperneck 21.7447 -0.812657 1.11293
head 9.07927 -0.301227 0.365787
rclavicle -6.15611e-015 -2.01766e-014
rhumerus -45.726 -0.797027 -87.934
rradius 42.0796
rwrist 13.8161
rhand -7.65574 -28.6926
rfingers 7.12502
rthumb 18.2401 -57.8574
lclavicle -6.15611e-015 -2.01766e-014
lhumerus -39.344 -0.178551 92.9557
lradius 38.2339
lwrist -7.81825
lhand -3.41643 -24.0258
lfingers 7.12502
lthumb 22.3143 4.70567
rfemur 6.73196 3.15594 18.744
rtibia 0
rfoot -16.8195 -11.0382
rtoes -4.64056
lfemur -5.99031 -7.43473 -10.0613
ltibia 23.0927
lfoot -22.4763 12.9345
ltoes -55.7934
32
root -0.791486 18.7042 5.46653 0.647653 -2.77701 -4.06445
lowerback 4.69355 0.522951 2.185
upperback 0.426742 0.843007 1.41616
thorax -2.1825 0.405879 0.174775
lowerneck -13.8029 -0.449178 -0.637981
upperneck 21.7304 -0.762338 1.19735
head 9.10381 -0.280459 0.425723
rclavicle 9.83518e-015 -1.44119e-014
rhumerus -45.5457 -0.721144 -87.8963
rradius 42.0639
rwrist 13.8955
rhand -8.12627 -28.8434
rfingers 7.12502
rthumb 17.7873 -58.0499
lclavicle 9.83518e-015 -1.44119e-014
lhumerus -39.1683 -0.075011 92.9785
lradius 38.2237
lwrist -7.85231
lhand -3.39797 -23.9898
lfingers 7.12502
lthumb 22.332 4.73955
rfemur 6.72213 3.16652 18.7487
rtibia 9.54166e-015
rfoot -16.8099 -11.0264
rtoes -4.48004
lfemur -5.99287 -7.48987 -10.059
ltibia 23.0885
lfoot -22.4956 12.988
ltoes -55.7118
33
root -0.790014 18.7043 5.4661 0.653775 -2.78059 -4.05346
lowerback 4.24631 0.479216 2.02301
upperback 0.713787 0.757192 1.52815
thorax -1.64178 0.369875 0.391444
lowerneck -14.0399 -0.398796 -0.729274
upperneck 21.5916 -0.670588 1.20949
head 9.09925 -0.243225 0.455519
rclavicle 2.60555e-015 -6.61114e-015
rhumerus -45.0536 -0.502681 -87.8447
rradius 41.9961
rwrist 13.8863
rhand -9.10791 -29.117
rfingers 7.12502
rthumb 16.8426 -58.4066
lclavicle 2.60555e-015 -6.61114e-015
lhumerus -38.683 0.194035 93.0087
lradius 38.1359
lwrist -7.94646
lhand -3.36417 -24.0175
lfingers 7.12502
lthumb 22.3644 4.70805
rfemur 6.71224 3.17073 18.7308
rtibia -1.11319e-014
rfoot -16.8166 -11.0245
rtoes -4.29564
lfemur -5.99187 -7.60278 -10.086
ltibia 23.0853
lfoot -22.5609 13.0321
ltoes -55.6058
34
root -0.789298 18.7045 5.4665 0.657193 -2.77475 -4.04945
lowerback 4.65479 0.525241 2.25784
upperback 0.397576 0.848831 1.39681
thorax -2.18937 0.407839 0.113977
lowerneck -13.8598 -0.481705 -0.778071
upperneck 21.8266 -0.824973 1.40705
head 9.14985 -0.297977 0.513697
rclavicle 8.69683e-016 -7.25564e-015
rhumerus -45.566 -0.757171 -87.9014
rradius 42.0599
rwrist 13.8746
rhand -8.18379 -29.355
rfingers 7.12502
rthumb 17.732 -58.5665
lclavicle 8.69683e-016 -7.25564e-015
lhumerus -39.1563 -0.0509757 92.9356
lradius 38.1449
lwrist -7.97552
lhand -3.3539 -24.0706
lfingers 7.12502
lthumb 22.3743 4.65368
rfemur 6.71226 3.16517 18.7238
rtibia 4.77083e-015
rfoot -16.8337 -11.0131
rtoes -4.25486
lfemur -5.98552 -7.65857 -10.1005
ltibia 23.0828
lfoot -22.5849 13.0686
ltoes -55.698
